<?xml version="1.0" encoding="utf-8"?>
<!-- Generator: Adobe Illustrator 22.0.1, SVG Export Plug-In . SVG Version: 6.00 Build 0)  -->
<svg version="1.1" id="Layer_1" xmlns="http://www.w3.org/2000/svg" xmlns:xlink="http://www.w3.org/1999/xlink" x="0px" y="0px"
	 viewBox="0 0 273 273" style="enable-background:new 0 0 273 273;" xml:space="preserve">
<path d="M266,173.5h-78.5v-74H266c3.9,0,7-3.1,7-7s-3.1-7-7-7h-78.5V7c0-3.9-3.1-7-7-7s-7,3.1-7,7v78.5h-74V7c0-3.9-3.1-7-7-7
	s-7,3.1-7,7v78.5H7c-3.9,0-7,3.1-7,7s3.1,7,7,7h78.5v74H7c-3.9,0-7,3.1-7,7s3.1,7,7,7h78.5V266c0,3.9,3.1,7,7,7s7-3.1,7-7v-78.5h74
	V266c0,3.9,3.1,7,7,7s7-3.1,7-7v-78.5H266c3.9,0,7-3.1,7-7S269.9,173.5,266,173.5z M99.5,173.5v-74h74v74H99.5z"/>
</svg>
